<svg width="20" height="20" viewBox="0 0 20 20" fill="none" xmlns="http://www.w3.org/2000/svg">
<g clip-path="url(#clip0)">
<path d="M16 1.85817e-05H13C10.0359 1.85817e-05 8.00001 2.00989 8.00001 5.00002V7.00002H5.00001C4.77078 7.00002 5.00001 7.77468 5.00001 8.00002V11C5.00001 11.2254 4.77099 11 5.00001 11H8.00001V20C8.00001 20.2254 7.77078 20 8.00001 20H12C12.2292 20 12 20.2251 12 20V11H15C15.2292 11 16 11.2254 16 11V8.00002C16 7.89182 16.0777 7.07659 16 7.00002C15.9223 6.92345 15.1101 7.00002 15 7.00002H12V5.00002C12 4.07537 12.7747 4.00002 14 4.00002H16C16.229 4.00002 16 3.22515 16 3.00002V1.85817e-05C16.2288 0.000434712 16 -0.224902 16 1.85817e-05Z" fill="#66C05D"/>
</g>
<defs>
<clipPath id="clip0">
<rect width="20" height="20" fill="white"/>
</clipPath>
</defs>
</svg>
