<svg width="22" height="22" viewBox="0 0 22 22" fill="none" xmlns="http://www.w3.org/2000/svg">
<path d="M15 0H7C3.20363 0 0 3.20363 0 7V15C0 18.7964 3.20363 22 7 22H15C18.7964 22 22 18.7964 22 15V7C22 3.20363 18.7964 0 15 0ZM20 15C20 17.6537 17.6537 20 15 20H7C4.34625 20 2 17.6537 2 15V7C2 4.34625 4.34625 2 7 2H15C17.6537 2 20 4.34625 20 7V15Z" fill="#66C05D"/>
<path d="M12 6C8.96262 6 6 8.96262 6 12C6 15.0374 8.96262 17 12 17C15.0374 17 17 15.0374 17 12C17 8.96262 15.0374 6 12 6ZM12 15C10.1052 15 8 13.8948 8 12C8 10.1039 10.1052 8 12 8C13.8948 8 15 10.1039 15 12C15 13.8948 13.8948 15 12 15Z" fill="#66C05D"/>
<path d="M16 5C16 5.27614 16.7239 5 17 5C17 4.72386 17.2761 4 17 4C16.7239 4 16 4.72386 16 5Z" fill="#66C05D"/>
</svg>
