<svg width="30" height="17" viewBox="0 0 30 17" fill="none" xmlns="http://www.w3.org/2000/svg">
<path d="M29 15C28.9661 14.9314 29.0294 14.0456 29 14C28.5142 13.1785 27.3703 12.1955 26 11C25.3781 10.4434 25.1649 10.1917 25 10C24.6982 9.63498 24.8351 9.37443 25 9.00003C25.1165 8.71716 25.2421 7.91274 26 7.00002C26.3986 6.51631 26.7669 6.2921 27 6.00002C28.6815 3.90101 29.2237 2.58411 29 2.00001C28.9416 1.91783 28.2427 2.06857 28 2.00001C27.7567 1.93159 27.3791 1.95441 27 2.00001H23C22.932 1.97738 23.1265 1.97258 23 2.00001C22.8736 2.02743 23 2.00001 23 2.00001C22.9514 2.02724 23.0584 1.93154 23 2.00001C22.9419 2.06823 22.0388 1.90877 22 2.00001C21.5429 3.10422 21.5833 4.051 21 5.00002C20.6404 5.56591 20.3016 6.58478 20 7.00002C19.6988 7.41513 19.2039 7.80398 19 8.00003C18.7958 8.19626 19.1655 7.88127 19 8.00003C18.8347 8.11883 18.0874 8.01839 18 8.00003C17.9124 7.98166 18.0781 8.01825 18 8.00003C17.864 7.91785 18.0825 8.14146 18 8.00003C17.9172 7.85859 17.0292 7.21448 17 7.00002C16.971 6.78542 17.0049 7.15522 17 7.00002C16.9955 6.84502 16.9901 6.28289 17 6.00002C17.0101 5.717 17 6.10042 17 6.00002C17 5.65319 16.9856 4.4061 17 4.00001C17.0147 3.59392 16.99 4.23705 17 4.00001C17.0099 3.76274 17 3.26466 17 3.00001C17 2.73536 17.0339 2.15065 17 2.00001C16.9665 1.84956 17.0678 2.14159 17 2.00001C16.9318 1.85857 17.1309 1.07767 17 1C16.8688 0.92243 16.1941 1.04574 16 1C15.4848 0.890547 14.7971 1.00921 14 1C12.1924 0.981785 11.5151 0.762727 11 1C10.7959 1.10026 10.1651 1.82674 10 2.00001C9.82501 2.20085 9.87367 1.98198 10 2.00001C10.5832 2.08204 11.757 2.68976 12 3.00001C12.0681 3.11862 11.9319 2.69892 12 3.00001C12.068 3.3011 11.9807 3.63516 12 4.00001C12.0485 4.6663 12.0485 5.52556 12 6.00002C11.9513 6.47467 12.0439 6.73537 12 7.00002C11.9561 7.26468 12.0874 7.83582 12 8.00003C11.9124 8.16428 12.0292 7.96359 12 8.00003C11.9708 8.03646 11.0193 7.99101 11 8.00003C10.8737 8.04548 11.136 8.00003 11 8.00003C10.8638 8.00003 11.1943 8.12785 11 8.00003C10.8057 7.87221 10.209 8.22364 10 8.00003C9.79101 7.77637 9.26251 7.40151 9 7.00002C8.7377 6.59854 8.28186 5.54754 8 5.00002C7.85422 4.74457 8.2527 4.48814 8 4.00001C7.74714 3.5117 7.19429 2.45629 7 2.00001C6.92234 1.80837 7.15548 2.1004 7 2.00001H6C5.95149 1.96357 6.10682 2.04124 6 2.00001C5.89303 1.95882 6.11673 2.01818 6 2.00001H2C1.59181 2.00001 1.14583 1.82659 0.999999 2.00001C0.970843 2.0457 0.999999 1.89956 0.999999 2.00001C0.999999 2.1004 0.941636 2.85412 0.999999 3.00001C1.58312 4.28684 2.31486 4.80457 3 6.00002C3.68514 7.19547 4.49475 8.27041 5 9.00003C5.50535 9.73018 5.47514 10.3523 6 11C6.52486 11.648 6.83002 12.8176 7 13C7.17019 13.1828 7.90283 12.9088 8 13C8.23325 13.2191 8.54806 13.6944 9 14C9.45205 14.3059 10.4509 14.7032 11 15C11.5492 15.2964 12.271 15.813 13 16.0001C13.7289 16.1873 14.3099 16.0363 15 16.0001H16C16.34 15.9725 16.8249 16.1733 17 16.0001C17.039 15.9456 16.9663 15.1139 17 15C17.0341 14.886 17 15.1367 17 15C16.99 14.6077 16.9273 14.3148 17 14C17.0727 13.6853 17.9074 13.1598 18 13C18.0926 12.8404 17.8837 13.1093 18 13C18.1165 12.8906 17.9513 13.0229 18 13C18.0484 12.9771 17.9708 13.0094 18 13C18.2333 12.9271 18.6838 12.7854 19 13C19.3159 13.2145 19.7228 13.6853 20 14C20.277 14.315 20.6113 14.6077 21 15C21.3889 15.3925 21.7085 14.8081 22 15V16.0001C22.1946 16.1097 22.6889 15.9088 23 16.0001C23.3105 16.0912 23.7664 16.0456 24 16.0001H28C28.3691 16.0001 28.7963 16.1139 29 16.0001C29.2041 15.886 28.9609 15.1367 29 15C29.0337 15.1736 29.039 14.8632 29 15C29.0339 15.0685 28.9654 14.8269 29 15Z" fill="#66C05D"/>
</svg>
